<?xml version="1.0" encoding="utf-8"?>
<!-- Generator: Adobe Illustrator 19.0.1, SVG Export Plug-In . SVG Version: 6.00 Build 0)  -->
<svg version="1.1" id="Layer_1" xmlns="http://www.w3.org/2000/svg" xmlns:xlink="http://www.w3.org/1999/xlink" x="0px" y="0px"
	 viewBox="87.3 195.1 558.1 424" style="enable-background:new 87.3 195.1 558.1 424;" xml:space="preserve">
<style type="text/css">
	.st0{fill:#292938;}
	.st1{fill:#FFFFFF;}
	.st2{fill:#FFFFFF;stroke:#00AC8B;stroke-width:16;stroke-miterlimit:10;}
	.st3{fill:#00AC8B;stroke:#00AC8B;stroke-width:2;stroke-miterlimit:10;}
</style>
<g>
	<g>
		<g>
			<path class="st0" d="M87.3,195.1h24.5V539H87.3V195.1L87.3,195.1z M153.2,195.1h24.5V539h-24.5V195.1L153.2,195.1z M504.5,537.5
				V195.1h24.5v342.4C528.9,537.5,504.5,537.8,504.5,537.5L504.5,537.5z M202.1,195.1h61.2v343.2h-61.2V195.1L202.1,195.1z
				 M291.5,195.1h12.2v343.2h-12.2V195.1L291.5,195.1z M480,195.1h12.2v341H480V195.1L480,195.1z M386.2,195.1h12.2v344.2h-12.2
				V195.1L386.2,195.1z M317.6,195.1h36.7v343.2h-36.7V195.1L317.6,195.1z M418.9,195.1h36.7v342.3c0,0.4-12.3,0.1-12.3,0.1
				c-8.6-0.1-22.7-0.1-24.4-0.1V195.1L418.9,195.1z"/>
		</g>
	</g>
</g>
<g>
	<circle class="st1" cx="529.6" cy="503.3" r="115.8"/>
	<circle class="st2" cx="529.6" cy="503.3" r="79.3"/>
	<g>
		<g>
			<path class="st3" d="M529.2,534.9l45.5-45.5c2.4-2.4,2.4-6.3,0-8.7c-2.4-2.4-6.3-2.4-8.7,0l-45.5,45.5c-2.4,2.4-2.4,6.3,0,8.7
				C522.9,537.3,526.8,537.3,529.2,534.9z"/>
		</g>
		<g>
			<path class="st3" d="M489,503.9l30.9,30.9c2.4,2.4,6.3,2.4,8.7,0c2.4-2.4,2.4-6.3,0-8.7l-30.9-30.9c-2.4-2.4-6.3-2.4-8.7,0
				C486.6,497.6,486.6,501.4,489,503.9z"/>
		</g>
	</g>
</g>
</svg>
